<svg xmlns="http://www.w3.org/2000/svg"
  width="2000" height="2000"
  viewBox="0 0 1500 1499.999933"
  preserveAspectRatio="xMidYMid meet">
  <style>
  @keyframes fill0 {
    0.0% { fill: #7B71C7; }
  @keyframes fill1 {
    0.0% { fill: #0c7016; }
  @keyframes fill2 {
    0.0% { fill: #0c7016; }
  @keyframes fill3 {
    0.0% { fill: #0c7016; }
  @keyframes fill4 {
    0.0% { fill: #0c7016; }
  @keyframes fill5 {
    0.0% { fill: #0c7016; }
  @keyframes fill6 {
    0.0% { fill: #0c7016; }
  @keyframes fill7 {
    0.0% { fill: #0c7016; }
  @keyframes fill8 {
    0.0% { fill: #0c7016; }
  @keyframes fill9 {
    0.0% { fill: #0c7016; }
  @keyframes fill10 {
    0.0% { fill: #0c7016; }
  @keyframes fill11 {
    0.0% { fill: #0c7016; }
  @keyframes fill12 {
    0.0% { fill: #0c7016; }
  @keyframes fill13 {
    0.0% { fill: #0c7016; }
  @keyframes fill14 {
    0.0% { fill: #0c7016; }
  @keyframes fill15 {
    0.0% { fill: #0c7016; }
  @keyframes fill16 {
    0.0% { fill: #0c7016; }
  @keyframes fill17 {
    0.0% { fill: #0c7016; }
  @keyframes fill18 {
    0.0% { fill: #0c7016; }
  @keyframes fill19 {
    0.0% { fill: #0c7016; }
  @keyframes fill20 {
    0.0% { fill: #0c7016; }
  @keyframes fill21 {
    0.0% { fill: #0c7016; }
  @keyframes fill22 {
    0.0% { fill: #0c7016; }
  @keyframes fill23 {
    0.0% { fill: #0c7016; }
  @keyframes fill24 {
    0.0% { fill: #0c7016; }
  @keyframes fill25 {
    0.0% { fill: #0c7016; }
  @keyframes fill26 {
    0.0% { fill: #0c7016; }
  @keyframes fill27 {
    0.0% { fill: #0c7016; }
  @keyframes fill28 {
    0.0% { fill: #0c7016; }
  @keyframes fill29 {
    0.0% { fill: #0c7016; }
  @keyframes fill30 {
    0.0% { fill: #0c7016; }
  @keyframes fill31 {
    0.0% { fill: #0c7016; }
  @keyframes fill32 {
    0.0% { fill: #0c7016; }
  @keyframes fill33 {
    0.0% { fill: #0c7016; }
  @keyframes fill34 {
    0.0% { fill: #0c7016; }
  @keyframes fill35 {
    0.0% { fill: #0c7016; }
  @keyframes fill36 {
    0.0% { fill: #0c7016; }
  @keyframes fill37 {
    0.0% { fill: #0c7016; }
  @keyframes fill38 {
    0.0% { fill: #0c7016; }
  @keyframes fill39 {
    0.0% { fill: #0c7016; }
  </style>
  <path style="fill:#0c7016; animation: fill0 5.5s linear infinite;" d="M 778.444 82.000 A 13.0 13.0 0 0 1 778.444 108.000 L 721.556 108.000 A 13.0 13.0 0 0 1 721.556 82.000 Z" fill-opacity="1" fill-rule="nonzero"/>
  <path style="fill:#0c7016; animation: fill1 5.5s linear infinite;" d="M 882.592 94.674 A 13.0 13.0 0 0 1 878.524 120.354 L 822.338 111.455 A 13.0 13.0 0 0 1 826.405 85.775 Z" fill-opacity="1" fill-rule="nonzero"/>
  <path style="fill:#0c7016; animation: fill2 5.5s linear infinite;" d="M 983.475 123.484 A 13.0 13.0 0 0 1 975.440 148.211 L 921.337 130.632 A 13.0 13.0 0 0 1 929.372 105.905 Z" fill-opacity="1" fill-rule="nonzero"/>
  <path style="fill:#0c7016; animation: fill3 5.5s linear infinite;" d="M 1078.609 167.721 A 13.0 13.0 0 0 1 1066.805 190.887 L 1016.118 165.061 A 13.0 13.0 0 0 1 1027.922 141.895 Z" fill-opacity="1" fill-rule="nonzero"/>
  <path style="fill:#0c7016; animation: fill4 5.5s linear infinite;" d="M 1165.652 226.295 A 13.0 13.0 0 0 1 1150.369 247.330 L 1104.347 213.892 A 13.0 13.0 0 0 1 1119.629 192.858 Z" fill-opacity="1" fill-rule="nonzero"/>
  <path style="fill:#0c7016; animation: fill5 5.5s linear infinite;" d="M 1242.460 297.765 A 13.0 13.0 0 0 1 1224.075 316.150 L 1183.850 275.925 A 13.0 13.0 0 0 1 1202.235 257.540 Z" fill-opacity="1" fill-rule="nonzero"/>
  <path style="fill:#0c7016; animation: fill6 5.5s linear infinite;" d="M 1307.142 380.371 A 13.0 13.0 0 0 1 1286.108 395.653 L 1252.670 349.631 A 13.0 13.0 0 0 1 1273.705 334.348 Z" fill-opacity="1" fill-rule="nonzero"/>
  <path style="fill:#0c7016; animation: fill7 5.5s linear infinite;" d="M 1358.105 472.078 A 13.0 13.0 0 0 1 1334.939 483.882 L 1309.113 433.195 A 13.0 13.0 0 0 1 1332.279 421.391 Z" fill-opacity="1" fill-rule="nonzero"/>
  <path style="fill:#0c7016; animation: fill8 5.5s linear infinite;" d="M 1394.095 570.628 A 13.0 13.0 0 0 1 1369.368 578.663 L 1351.789 524.560 A 13.0 13.0 0 0 1 1376.516 516.525 Z" fill-opacity="1" fill-rule="nonzero"/>
  <path style="fill:#0c7016; animation: fill9 5.5s linear infinite;" d="M 1414.225 673.595 A 13.0 13.0 0 0 1 1388.545 677.662 L 1379.646 621.476 A 13.0 13.0 0 0 1 1405.326 617.408 Z" fill-opacity="1" fill-rule="nonzero"/>
  <path style="fill:#0c7016; animation: fill10 5.5s linear infinite;" d="M 1418.000 778.444 A 13.0 13.0 0 0 1 1392.000 778.444 L 1392.000 721.556 A 13.0 13.0 0 0 1 1418.000 721.556 Z" fill-opacity="1" fill-rule="nonzero"/>
  <path style="fill:#0c7016; animation: fill11 5.5s linear infinite;" d="M 1405.326 882.592 A 13.0 13.0 0 0 1 1379.646 878.524 L 1388.545 822.338 A 13.0 13.0 0 0 1 1414.225 826.405 Z" fill-opacity="1" fill-rule="nonzero"/>
  <path style="fill:#0c7016; animation: fill12 5.5s linear infinite;" d="M 1376.516 983.475 A 13.0 13.0 0 0 1 1351.789 975.440 L 1369.368 921.337 A 13.0 13.0 0 0 1 1394.095 929.372 Z" fill-opacity="1" fill-rule="nonzero"/>
  <path style="fill:#0c7016; animation: fill13 5.5s linear infinite;" d="M 1332.279 1078.609 A 13.0 13.0 0 0 1 1309.113 1066.805 L 1334.939 1016.118 A 13.0 13.0 0 0 1 1358.105 1027.922 Z" fill-opacity="1" fill-rule="nonzero"/>
  <path style="fill:#0c7016; animation: fill14 5.5s linear infinite;" d="M 1273.705 1165.652 A 13.0 13.0 0 0 1 1252.670 1150.369 L 1286.108 1104.347 A 13.0 13.0 0 0 1 1307.142 1119.629 Z" fill-opacity="1" fill-rule="nonzero"/>
  <path style="fill:#0c7016; animation: fill15 5.5s linear infinite;" d="M 1202.235 1242.460 A 13.0 13.0 0 0 1 1183.850 1224.075 L 1224.075 1183.850 A 13.0 13.0 0 0 1 1242.460 1202.235 Z" fill-opacity="1" fill-rule="nonzero"/>
  <path style="fill:#0c7016; animation: fill16 5.5s linear infinite;" d="M 1119.629 1307.142 A 13.0 13.0 0 0 1 1104.347 1286.108 L 1150.369 1252.670 A 13.0 13.0 0 0 1 1165.652 1273.705 Z" fill-opacity="1" fill-rule="nonzero"/>
  <path style="fill:#0c7016; animation: fill17 5.5s linear infinite;" d="M 1027.922 1358.105 A 13.0 13.0 0 0 1 1016.118 1334.939 L 1066.805 1309.113 A 13.0 13.0 0 0 1 1078.609 1332.279 Z" fill-opacity="1" fill-rule="nonzero"/>
  <path style="fill:#0c7016; animation: fill18 5.5s linear infinite;" d="M 929.372 1394.095 A 13.0 13.0 0 0 1 921.337 1369.368 L 975.440 1351.789 A 13.0 13.0 0 0 1 983.475 1376.516 Z" fill-opacity="1" fill-rule="nonzero"/>
  <path style="fill:#0c7016; animation: fill19 5.5s linear infinite;" d="M 826.405 1414.225 A 13.0 13.0 0 0 1 822.338 1388.545 L 878.524 1379.646 A 13.0 13.0 0 0 1 882.592 1405.326 Z" fill-opacity="1" fill-rule="nonzero"/>
  <path style="fill:#0c7016; animation: fill20 5.5s linear infinite;" d="M 721.556 1418.000 A 13.0 13.0 0 0 1 721.556 1392.000 L 778.444 1392.000 A 13.0 13.0 0 0 1 778.444 1418.000 Z" fill-opacity="1" fill-rule="nonzero"/>
  <path style="fill:#0c7016; animation: fill21 5.5s linear infinite;" d="M 617.408 1405.326 A 13.0 13.0 0 0 1 621.476 1379.646 L 677.662 1388.545 A 13.0 13.0 0 0 1 673.595 1414.225 Z" fill-opacity="1" fill-rule="nonzero"/>
  <path style="fill:#0c7016; animation: fill22 5.5s linear infinite;" d="M 516.525 1376.516 A 13.0 13.0 0 0 1 524.560 1351.789 L 578.663 1369.368 A 13.0 13.0 0 0 1 570.628 1394.095 Z" fill-opacity="1" fill-rule="nonzero"/>
  <path style="fill:#0c7016; animation: fill23 5.5s linear infinite;" d="M 421.391 1332.279 A 13.0 13.0 0 0 1 433.195 1309.113 L 483.882 1334.939 A 13.0 13.0 0 0 1 472.078 1358.105 Z" fill-opacity="1" fill-rule="nonzero"/>
  <path style="fill:#0c7016; animation: fill24 5.5s linear infinite;" d="M 334.348 1273.705 A 13.0 13.0 0 0 1 349.631 1252.670 L 395.653 1286.108 A 13.0 13.0 0 0 1 380.371 1307.142 Z" fill-opacity="1" fill-rule="nonzero"/>
  <path style="fill:#0c7016; animation: fill25 5.5s linear infinite;" d="M 257.540 1202.235 A 13.0 13.0 0 0 1 275.925 1183.850 L 316.150 1224.075 A 13.0 13.0 0 0 1 297.765 1242.460 Z" fill-opacity="1" fill-rule="nonzero"/>
  <path style="fill:#0c7016; animation: fill26 5.5s linear infinite;" d="M 192.858 1119.629 A 13.0 13.0 0 0 1 213.892 1104.347 L 247.330 1150.369 A 13.0 13.0 0 0 1 226.295 1165.652 Z" fill-opacity="1" fill-rule="nonzero"/>
  <path style="fill:#0c7016; animation: fill27 5.5s linear infinite;" d="M 141.895 1027.922 A 13.0 13.0 0 0 1 165.061 1016.118 L 190.887 1066.805 A 13.0 13.0 0 0 1 167.721 1078.609 Z" fill-opacity="1" fill-rule="nonzero"/>
  <path style="fill:#0c7016; animation: fill28 5.5s linear infinite;" d="M 105.905 929.372 A 13.0 13.0 0 0 1 130.632 921.337 L 148.211 975.440 A 13.0 13.0 0 0 1 123.484 983.475 Z" fill-opacity="1" fill-rule="nonzero"/>
  <path style="fill:#0c7016; animation: fill29 5.5s linear infinite;" d="M 85.775 826.405 A 13.0 13.0 0 0 1 111.455 822.338 L 120.354 878.524 A 13.0 13.0 0 0 1 94.674 882.592 Z" fill-opacity="1" fill-rule="nonzero"/>
  <path style="fill:#0c7016; animation: fill30 5.5s linear infinite;" d="M 82.000 721.556 A 13.0 13.0 0 0 1 108.000 721.556 L 108.000 778.444 A 13.0 13.0 0 0 1 82.000 778.444 Z" fill-opacity="1" fill-rule="nonzero"/>
  <path style="fill:#0c7016; animation: fill31 5.5s linear infinite;" d="M 94.674 617.408 A 13.0 13.0 0 0 1 120.354 621.476 L 111.455 677.662 A 13.0 13.0 0 0 1 85.775 673.595 Z" fill-opacity="1" fill-rule="nonzero"/>
  <path style="fill:#0c7016; animation: fill32 5.5s linear infinite;" d="M 123.484 516.525 A 13.0 13.0 0 0 1 148.211 524.560 L 130.632 578.663 A 13.0 13.0 0 0 1 105.905 570.628 Z" fill-opacity="1" fill-rule="nonzero"/>
  <path style="fill:#0c7016; animation: fill33 5.5s linear infinite;" d="M 167.721 421.391 A 13.0 13.0 0 0 1 190.887 433.195 L 165.061 483.882 A 13.0 13.0 0 0 1 141.895 472.078 Z" fill-opacity="1" fill-rule="nonzero"/>
  <path style="fill:#0c7016; animation: fill34 5.5s linear infinite;" d="M 226.295 334.348 A 13.0 13.0 0 0 1 247.330 349.631 L 213.892 395.653 A 13.0 13.0 0 0 1 192.858 380.371 Z" fill-opacity="1" fill-rule="nonzero"/>
  <path style="fill:#0c7016; animation: fill35 5.5s linear infinite;" d="M 297.765 257.540 A 13.0 13.0 0 0 1 316.150 275.925 L 275.925 316.150 A 13.0 13.0 0 0 1 257.540 297.765 Z" fill-opacity="1" fill-rule="nonzero"/>
  <path style="fill:#0c7016; animation: fill36 5.5s linear infinite;" d="M 380.371 192.858 A 13.0 13.0 0 0 1 395.653 213.892 L 349.631 247.330 A 13.0 13.0 0 0 1 334.348 226.295 Z" fill-opacity="1" fill-rule="nonzero"/>
  <path style="fill:#0c7016; animation: fill37 5.5s linear infinite;" d="M 472.078 141.895 A 13.0 13.0 0 0 1 483.882 165.061 L 433.195 190.887 A 13.0 13.0 0 0 1 421.391 167.721 Z" fill-opacity="1" fill-rule="nonzero"/>
  <path style="fill:#0c7016; animation: fill38 5.5s linear infinite;" d="M 570.628 105.905 A 13.0 13.0 0 0 1 578.663 130.632 L 524.560 148.211 A 13.0 13.0 0 0 1 516.525 123.484 Z" fill-opacity="1" fill-rule="nonzero"/>
  <path style="fill:#0c7016; animation: fill39 5.5s linear infinite;" d="M 673.595 85.775 A 13.0 13.0 0 0 1 677.662 111.455 L 621.476 120.354 A 13.0 13.0 0 0 1 617.408 94.674 Z" fill-opacity="1" fill-rule="nonzero"/>
</svg>