<svg xmlns="http://www.w3.org/2000/svg" xmlns:xlink="http://www.w3.org/1999/xlink"
  width="2000" height="2000"
  viewBox="0 0 1500 1499.999933"
  preserveAspectRatio="xMidYMid meet">

  <g>
  <path fill="#0c7016" d="M 778.444 82.000 A 13.0 13.0 0 0 1 778.444 108.000 L 721.556 108.000 A 13.0 13.0 0 0 1 721.556 82.000 Z" fill-opacity="1" fill-rule="nonzero"/>
  <path fill="#0c7016" d="M 882.592 94.674 A 13.0 13.0 0 0 1 878.524 120.354 L 822.338 111.455 A 13.0 13.0 0 0 1 826.405 85.775 Z" fill-opacity="1" fill-rule="nonzero"/>
  <path fill="#0c7016" d="M 983.475 123.484 A 13.0 13.0 0 0 1 975.440 148.211 L 921.337 130.632 A 13.0 13.0 0 0 1 929.372 105.905 Z" fill-opacity="1" fill-rule="nonzero"/>
  <path fill="#0c7016" d="M 1078.609 167.721 A 13.0 13.0 0 0 1 1066.805 190.887 L 1016.118 165.061 A 13.0 13.0 0 0 1 1027.922 141.895 Z" fill-opacity="1" fill-rule="nonzero"/>
  <path fill="#0c7016" d="M 1165.652 226.295 A 13.0 13.0 0 0 1 1150.369 247.330 L 1104.347 213.892 A 13.0 13.0 0 0 1 1119.629 192.858 Z" fill-opacity="1" fill-rule="nonzero"/>
  <path fill="#0c7016" d="M 1242.460 297.765 A 13.0 13.0 0 0 1 1224.075 316.150 L 1183.850 275.925 A 13.0 13.0 0 0 1 1202.235 257.540 Z" fill-opacity="1" fill-rule="nonzero"/>
  <path fill="#0c7016" d="M 1307.142 380.371 A 13.0 13.0 0 0 1 1286.108 395.653 L 1252.670 349.631 A 13.0 13.0 0 0 1 1273.705 334.348 Z" fill-opacity="1" fill-rule="nonzero"/>
  <path fill="#0c7016" d="M 1358.105 472.078 A 13.0 13.0 0 0 1 1334.939 483.882 L 1309.113 433.195 A 13.0 13.0 0 0 1 1332.279 421.391 Z" fill-opacity="1" fill-rule="nonzero"/>
  <path fill="#0c7016" d="M 1394.095 570.628 A 13.0 13.0 0 0 1 1369.368 578.663 L 1351.789 524.560 A 13.0 13.0 0 0 1 1376.516 516.525 Z" fill-opacity="1" fill-rule="nonzero"/>
  <path fill="#0c7016" d="M 1414.225 673.595 A 13.0 13.0 0 0 1 1388.545 677.662 L 1379.646 621.476 A 13.0 13.0 0 0 1 1405.326 617.408 Z" fill-opacity="1" fill-rule="nonzero"/>
  <path fill="#0c7016" d="M 1418.000 778.444 A 13.0 13.0 0 0 1 1392.000 778.444 L 1392.000 721.556 A 13.0 13.0 0 0 1 1418.000 721.556 Z" fill-opacity="1" fill-rule="nonzero"/>
  <path fill="#0c7016" d="M 1405.326 882.592 A 13.0 13.0 0 0 1 1379.646 878.524 L 1388.545 822.338 A 13.0 13.0 0 0 1 1414.225 826.405 Z" fill-opacity="1" fill-rule="nonzero"/>
  <path fill="#0c7016" d="M 1376.516 983.475 A 13.0 13.0 0 0 1 1351.789 975.440 L 1369.368 921.337 A 13.0 13.0 0 0 1 1394.095 929.372 Z" fill-opacity="1" fill-rule="nonzero"/>
  <path fill="#0c7016" d="M 1332.279 1078.609 A 13.0 13.0 0 0 1 1309.113 1066.805 L 1334.939 1016.118 A 13.0 13.0 0 0 1 1358.105 1027.922 Z" fill-opacity="1" fill-rule="nonzero"/>
  <path fill="#0c7016" d="M 1273.705 1165.652 A 13.0 13.0 0 0 1 1252.670 1150.369 L 1286.108 1104.347 A 13.0 13.0 0 0 1 1307.142 1119.629 Z" fill-opacity="1" fill-rule="nonzero"/>
  <path fill="#0c7016" d="M 1202.235 1242.460 A 13.0 13.0 0 0 1 1183.850 1224.075 L 1224.075 1183.850 A 13.0 13.0 0 0 1 1242.460 1202.235 Z" fill-opacity="1" fill-rule="nonzero"/>
  <path fill="#0c7016" d="M 1119.629 1307.142 A 13.0 13.0 0 0 1 1104.347 1286.108 L 1150.369 1252.670 A 13.0 13.0 0 0 1 1165.652 1273.705 Z" fill-opacity="1" fill-rule="nonzero"/>
  <path fill="#0c7016" d="M 1027.922 1358.105 A 13.0 13.0 0 0 1 1016.118 1334.939 L 1066.805 1309.113 A 13.0 13.0 0 0 1 1078.609 1332.279 Z" fill-opacity="1" fill-rule="nonzero"/>
  <path fill="#0c7016" d="M 929.372 1394.095 A 13.0 13.0 0 0 1 921.337 1369.368 L 975.440 1351.789 A 13.0 13.0 0 0 1 983.475 1376.516 Z" fill-opacity="1" fill-rule="nonzero"/>
  <path fill="#0c7016" d="M 826.405 1414.225 A 13.0 13.0 0 0 1 822.338 1388.545 L 878.524 1379.646 A 13.0 13.0 0 0 1 882.592 1405.326 Z" fill-opacity="1" fill-rule="nonzero"/>
  <path fill="#0c7016" d="M 721.556 1418.000 A 13.0 13.0 0 0 1 721.556 1392.000 L 778.444 1392.000 A 13.0 13.0 0 0 1 778.444 1418.000 Z" fill-opacity="1" fill-rule="nonzero"/>
  <path fill="#0c7016" d="M 617.408 1405.326 A 13.0 13.0 0 0 1 621.476 1379.646 L 677.662 1388.545 A 13.0 13.0 0 0 1 673.595 1414.225 Z" fill-opacity="1" fill-rule="nonzero"/>
  <path fill="#0c7016" d="M 516.525 1376.516 A 13.0 13.0 0 0 1 524.560 1351.789 L 578.663 1369.368 A 13.0 13.0 0 0 1 570.628 1394.095 Z" fill-opacity="1" fill-rule="nonzero"/>
  <path fill="#0c7016" d="M 421.391 1332.279 A 13.0 13.0 0 0 1 433.195 1309.113 L 483.882 1334.939 A 13.0 13.0 0 0 1 472.078 1358.105 Z" fill-opacity="1" fill-rule="nonzero"/>
  <path fill="#0c7016" d="M 334.348 1273.705 A 13.0 13.0 0 0 1 349.631 1252.670 L 395.653 1286.108 A 13.0 13.0 0 0 1 380.371 1307.142 Z" fill-opacity="1" fill-rule="nonzero"/>
  <path fill="#0c7016" d="M 257.540 1202.235 A 13.0 13.0 0 0 1 275.925 1183.850 L 316.150 1224.075 A 13.0 13.0 0 0 1 297.765 1242.460 Z" fill-opacity="1" fill-rule="nonzero"/>
  <path fill="#0c7016" d="M 192.858 1119.629 A 13.0 13.0 0 0 1 213.892 1104.347 L 247.330 1150.369 A 13.0 13.0 0 0 1 226.295 1165.652 Z" fill-opacity="1" fill-rule="nonzero"/>
  <path fill="#0c7016" d="M 141.895 1027.922 A 13.0 13.0 0 0 1 165.061 1016.118 L 190.887 1066.805 A 13.0 13.0 0 0 1 167.721 1078.609 Z" fill-opacity="1" fill-rule="nonzero"/>
  <path fill="#0c7016" d="M 105.905 929.372 A 13.0 13.0 0 0 1 130.632 921.337 L 148.211 975.440 A 13.0 13.0 0 0 1 123.484 983.475 Z" fill-opacity="1" fill-rule="nonzero"/>
  <path fill="#0c7016" d="M 85.775 826.405 A 13.0 13.0 0 0 1 111.455 822.338 L 120.354 878.524 A 13.0 13.0 0 0 1 94.674 882.592 Z" fill-opacity="1" fill-rule="nonzero"/>
  <path fill="#0c7016" d="M 82.000 721.556 A 13.0 13.0 0 0 1 108.000 721.556 L 108.000 778.444 A 13.0 13.0 0 0 1 82.000 778.444 Z" fill-opacity="1" fill-rule="nonzero"/>
  <path fill="#0c7016" d="M 94.674 617.408 A 13.0 13.0 0 0 1 120.354 621.476 L 111.455 677.662 A 13.0 13.0 0 0 1 85.775 673.595 Z" fill-opacity="1" fill-rule="nonzero"/>
  <path fill="#0c7016" d="M 123.484 516.525 A 13.0 13.0 0 0 1 148.211 524.560 L 130.632 578.663 A 13.0 13.0 0 0 1 105.905 570.628 Z" fill-opacity="1" fill-rule="nonzero"/>
  <path fill="#0c7016" d="M 167.721 421.391 A 13.0 13.0 0 0 1 190.887 433.195 L 165.061 483.882 A 13.0 13.0 0 0 1 141.895 472.078 Z" fill-opacity="1" fill-rule="nonzero"/>
  <path fill="#0c7016" d="M 226.295 334.348 A 13.0 13.0 0 0 1 247.330 349.631 L 213.892 395.653 A 13.0 13.0 0 0 1 192.858 380.371 Z" fill-opacity="1" fill-rule="nonzero"/>
  <path fill="#0c7016" d="M 297.765 257.540 A 13.0 13.0 0 0 1 316.150 275.925 L 275.925 316.150 A 13.0 13.0 0 0 1 257.540 297.765 Z" fill-opacity="1" fill-rule="nonzero"/>
  <path fill="#0c7016" d="M 380.371 192.858 A 13.0 13.0 0 0 1 395.653 213.892 L 349.631 247.330 A 13.0 13.0 0 0 1 334.348 226.295 Z" fill-opacity="1" fill-rule="nonzero"/>
  <path fill="#0c7016" d="M 472.078 141.895 A 13.0 13.0 0 0 1 483.882 165.061 L 433.195 190.887 A 13.0 13.0 0 0 1 421.391 167.721 Z" fill-opacity="1" fill-rule="nonzero"/>
  <path fill="#0c7016" d="M 570.628 105.905 A 13.0 13.0 0 0 1 578.663 130.632 L 524.560 148.211 A 13.0 13.0 0 0 1 516.525 123.484 Z" fill-opacity="1" fill-rule="nonzero"/>
  <path fill="#0c7016" d="M 673.595 85.775 A 13.0 13.0 0 0 1 677.662 111.455 L 621.476 120.354 A 13.0 13.0 0 0 1 617.408 94.674 Z" fill-opacity="1" fill-rule="nonzero"/>
  </g>

  <g fill="#0c7016" fill-opacity="1">
    <g transform="translate(643.872746, 940.874899)">
      <g><path d="M 134.40625 -448 C 111.46875 -448 92.929688 -454.664062 78.796875 -468 C 64.660156 -481.332031 57.59375 -499.46875 57.59375 -522.40625 C 57.59375 -544.269531 64.660156 -561.867188 78.796875 -575.203125 C 92.929688 -588.535156 111.46875 -595.203125 134.40625 -595.203125 C 157.863281 -595.203125 176.523438 -588.535156 190.390625 -575.203125 C 204.265625 -561.867188 211.203125 -544.269531 211.203125 -522.40625 C 211.203125 -499.46875 204.265625 -481.332031 190.390625 -468 C 176.523438 -454.664062 157.863281 -448 134.40625 -448 Z M 41.59375 204 C 18.132812 204 -5.0625 200.53125 -28 193.59375 L -23.203125 174.40625 C -13.597656 178.132812 -4.53125 180 4 180 C 23.726562 180 37.191406 169.863281 44.390625 149.59375 C 51.597656 129.332031 55.203125 99.46875 55.203125 60 L 55.203125 -328 C 55.203125 -339.726562 51.597656 -348.257812 44.390625 -353.59375 C 37.191406 -358.925781 27.992188 -361.59375 16.796875 -361.59375 L 16.796875 -380.796875 C 34.398438 -381.328125 54.800781 -382.660156 78 -384.796875 C 101.195312 -386.929688 123.863281 -390.128906 146 -394.390625 C 168.132812 -398.660156 186.398438 -404 200.796875 -410.40625 L 209.59375 -405.59375 L 209.59375 28.796875 C 209.59375 87.992188 194.660156 131.992188 164.796875 160.796875 C 134.929688 189.597656 93.863281 204 41.59375 204 Z M 41.59375 204 "/></g>
    </g>
  </g>

</svg>